<svg width="20" height="20" viewBox="0 0 20 20" fill="none" xmlns="http://www.w3.org/2000/svg">
<g clip-path="url(#clip0)">
<path d="M19.4488 5.55079L17.648 7.35157C17.4644 7.53516 17.1675 7.53516 16.9839 7.35157L12.648 3.01563C12.4644 2.83203 12.4644 2.53516 12.648 2.35156L14.4488 0.550782C15.1792 -0.179688 16.3667 -0.179688 17.1011 0.550782L19.4488 2.89844C20.1831 3.62891 20.1831 4.81641 19.4488 5.55079ZM11.1011 3.89844L0.843311 14.1563L0.0151877 18.9024C-0.0980934 19.543 0.4605 20.0977 1.10112 19.9883L5.84721 19.1563L16.105 8.89844C16.2886 8.71485 16.2886 8.41798 16.105 8.23438L11.7691 3.89844C11.5816 3.71485 11.2847 3.71485 11.1011 3.89844ZM4.84721 13.2774C4.63237 13.0625 4.63237 12.7188 4.84721 12.5039L10.8628 6.48829C11.0777 6.27344 11.4214 6.27344 11.6363 6.48829C11.8511 6.70313 11.8511 7.04688 11.6363 7.26172L5.62065 13.2774C5.4058 13.4922 5.06206 13.4922 4.84721 13.2774ZM3.43706 16.5625H5.31206V17.9805L2.79253 18.4219L1.57769 17.207L2.01909 14.6875H3.43706V16.5625Z" fill="#CFBDFF"/>
</g>
<defs>
<clipPath id="clip0">
<rect width="20" height="20" fill="white"/>
</clipPath>
</defs>
</svg>
