<svg width="18" height="20" viewBox="0 0 18 20" fill="none" xmlns="http://www.w3.org/2000/svg">
<g clip-path="url(#clip0)">
<path d="M16.9286 1.24983H12.2262L11.8578 0.519363C11.7798 0.363196 11.6596 0.231832 11.5108 0.14005C11.3619 0.0482666 11.1903 -0.000293756 11.0153 -0.000168627H6.53631C6.36169 -0.000837789 6.19041 0.0475415 6.04209 0.139427C5.89378 0.231312 5.77443 0.362986 5.69772 0.519363L5.32936 1.24983H0.626984C0.460698 1.24983 0.301222 1.31568 0.183639 1.43289C0.0660571 1.5501 0 1.70907 0 1.87483L0 3.12483C0 3.29059 0.0660571 3.44956 0.183639 3.56677C0.301222 3.68398 0.460698 3.74983 0.626984 3.74983H16.9286C17.0949 3.74983 17.2543 3.68398 17.3719 3.56677C17.4895 3.44956 17.5556 3.29059 17.5556 3.12483V1.87483C17.5556 1.70907 17.4895 1.5501 17.3719 1.43289C17.2543 1.31568 17.0949 1.24983 16.9286 1.24983ZM2.08472 18.242C2.11463 18.718 2.32539 19.1648 2.67411 19.4914C3.02283 19.818 3.48329 19.9998 3.96176 19.9998H13.5938C14.0723 19.9998 14.5327 19.818 14.8814 19.4914C15.2302 19.1648 15.4409 18.718 15.4708 18.242L16.3016 4.99983H1.25397L2.08472 18.242Z" fill="#CFBDFF"/>
</g>
<defs>
<clipPath id="clip0">
<rect width="17.5556" height="20" fill="white"/>
</clipPath>
</defs>
</svg>
