<svg width="18" height="20" viewBox="0 0 18 20" fill="none" xmlns="http://www.w3.org/2000/svg">
<g clip-path="url(#clip0)">
<path d="M16.9286 1.24982H12.2262L11.8578 0.519355C11.7798 0.363189 11.6596 0.231825 11.5108 0.140042C11.3619 0.048259 11.1903 -0.000301385 11.0153 -0.000176257H6.53631C6.36169 -0.000845418 6.19041 0.0475339 6.04209 0.139419C5.89378 0.231304 5.77443 0.362978 5.69772 0.519355L5.32936 1.24982H0.626984C0.460698 1.24982 0.301222 1.31567 0.183639 1.43288C0.0660571 1.55009 0 1.70906 0 1.87482L0 3.12482C0 3.29058 0.0660571 3.44956 0.183639 3.56677C0.301222 3.68398 0.460698 3.74982 0.626984 3.74982H16.9286C17.0949 3.74982 17.2543 3.68398 17.3719 3.56677C17.4895 3.44956 17.5556 3.29058 17.5556 3.12482V1.87482C17.5556 1.70906 17.4895 1.55009 17.3719 1.43288C17.2543 1.31567 17.0949 1.24982 16.9286 1.24982ZM2.08472 18.242C2.11463 18.718 2.32539 19.1648 2.67411 19.4914C3.02283 19.8179 3.48329 19.9998 3.96176 19.9998H13.5938C14.0723 19.9998 14.5327 19.8179 14.8814 19.4914C15.2302 19.1648 15.4409 18.718 15.4708 18.242L16.3016 4.99982H1.25397L2.08472 18.242Z" fill="white"/>
</g>
<defs>
<clipPath id="clip0">
<rect width="17.5556" height="20" fill="white"/>
</clipPath>
</defs>
</svg>
